# Blender v2.93.4 OBJ File: 'Ze_sheild.blend'
# www.blender.org
o Cube
v 0.076126 1.510820 -1.000000
v 0.076126 -1.510820 -1.000000
v 0.076126 1.510820 1.000000
v 0.076126 -1.510820 1.000000
v -0.076126 1.510820 -1.000000
v -0.076126 -1.510820 -1.000000
v -0.076126 1.510820 1.000000
v -0.076126 -1.510820 1.000000
v 0.156919 -1.510820 -0.666667
v 0.274145 -1.510820 -0.333333
v 0.274145 -1.510820 0.000000
v 0.274145 -1.510820 0.333333
v 0.156919 -1.510820 0.666667
v 0.309172 1.510820 -0.666667
v 0.426398 1.510820 -0.333333
v 0.426398 1.510820 0.000000
v 0.426398 1.510820 0.333333
v 0.309172 1.510820 0.666667
v 0.156919 1.510820 0.666667
v 0.274145 1.510820 0.333333
v 0.274145 1.510820 -0.000000
v 0.274145 1.510820 -0.333333
v 0.156919 1.510820 -0.666667
v 0.309172 -1.510820 0.666667
v 0.426398 -1.510820 0.333333
v 0.426398 -1.510820 -0.000000
v 0.426398 -1.510820 -0.333333
v 0.309172 -1.510820 -0.666667
v 0.076126 1.560820 1.000000
v -0.076126 1.560820 1.000000
v 0.309172 1.560820 0.666667
v 0.156919 1.560820 -0.666667
v -0.076126 1.560820 -1.000000
v 0.076126 1.560820 -1.000000
v 0.309172 1.560820 -0.666667
v 0.426398 1.560820 -0.333333
v 0.426398 1.560820 0.000000
v 0.426398 1.560820 0.333333
v 0.156919 1.560820 0.666667
v 0.274145 1.560820 0.333333
v 0.274145 1.560820 -0.000000
v 0.274145 1.560820 -0.333333
v 0.156919 -1.560820 0.666667
v -0.076126 -1.560820 1.000000
v 0.076126 -1.560820 -1.000000
v -0.076126 -1.560820 -1.000000
v 0.076126 -1.560820 1.000000
v 0.309172 -1.560820 -0.666667
v 0.156919 -1.560820 -0.666667
v 0.274145 -1.560820 -0.333333
v 0.274145 -1.560820 0.000000
v 0.274145 -1.560820 0.333333
v 0.309172 -1.560820 0.666667
v 0.426398 -1.560820 0.333333
v 0.426398 -1.560820 -0.000000
v 0.426398 -1.560820 -0.333333
v -0.076126 -1.510820 1.050000
v -0.076126 1.510820 1.050000
v 0.076126 1.510820 1.050000
v 0.076126 -1.510820 1.050000
v 0.076126 -1.560820 1.050000
v -0.076126 -1.560820 1.050000
v 0.076126 1.560820 1.050000
v -0.076126 1.560820 1.050000
v 0.076126 -1.510820 -1.050000
v -0.076126 -1.510820 -1.050000
v 0.076126 1.510820 -1.050000
v -0.076126 1.510820 -1.050000
v 0.076126 -1.560820 -1.050000
v -0.076126 1.560820 -1.050000
v 0.076126 1.560820 -1.050000
v -0.076126 -1.560820 -1.050000
v 0.106126 -1.560820 -1.050000
v 0.106126 -1.560820 -1.000000
v 0.106126 1.510820 -1.000000
v 0.106126 -1.510820 -1.000000
v 0.106126 1.510820 1.000000
v 0.106126 -1.510820 1.000000
v 0.106126 -1.510820 1.050000
v 0.339172 1.510820 0.666667
v 0.106126 1.510820 1.050000
v 0.339172 -1.510820 -0.666667
v 0.339172 1.510820 -0.666667
v 0.456398 1.510820 -0.333333
v 0.456398 1.510820 0.000000
v 0.456398 1.510820 0.333333
v 0.339172 -1.510820 0.666667
v 0.456398 -1.510820 0.333333
v 0.456398 -1.510820 -0.000000
v 0.456398 -1.510820 -0.333333
v 0.106126 -1.560820 1.000000
v 0.456398 -1.560820 -0.333333
v 0.456398 -1.560820 -0.000000
v 0.339172 1.560820 0.666667
v 0.106126 1.560820 1.000000
v 0.106126 1.560820 -1.000000
v 0.339172 1.560820 -0.666667
v 0.456398 1.560820 -0.333333
v 0.456398 1.560820 0.000000
v 0.456398 1.560820 0.333333
v 0.339172 -1.560820 -0.666667
v 0.339172 -1.560820 0.666667
v 0.456398 -1.560820 0.333333
v 0.106126 -1.560820 1.050000
v 0.106126 1.560820 1.050000
v 0.106126 1.510820 -1.050000
v 0.106126 -1.510820 -1.050000
v 0.106126 1.560820 -1.050000
vt 0.625000 0.125000
vt 0.625000 0.166667
vt 0.625000 0.166667
vt 0.375000 0.750000
vt 0.125000 0.750000
vt 0.125000 0.750000
vt 0.625000 0.208333
vt 0.375000 0.250000
vt 0.375000 0.208333
vt 0.625000 0.666667
vt 0.625000 0.708333
vt 0.625000 0.666667
vt 0.625000 0.708333
vt 0.375000 0.750000
vt 0.375000 0.708333
vt 0.625000 0.250000
vt 0.625000 0.250000
vt 0.625000 0.250000
vt 0.625000 0.500000
vt 0.375000 0.541667
vt 0.375000 0.500000
vt 0.625000 0.541667
vt 0.375000 0.583333
vt 0.625000 0.583333
vt 0.375000 0.625000
vt 0.625000 0.625000
vt 0.375000 0.666667
vt 0.625000 0.666667
vt 0.625000 0.625000
vt 0.375000 0.083333
vt 0.375000 0.041667
vt 0.375000 0.041667
vt 0.625000 0.625000
vt 0.625000 0.625000
vt 0.625000 0.500000
vt 0.625000 0.500000
vt 0.625000 0.500000
vt 0.375000 0.750000
vt 0.375000 0.750000
vt 0.375000 0.750000
vt 0.625000 0.000000
vt 0.375000 0.000000
vt 0.625000 0.041667
vt 0.625000 0.083333
vt 0.375000 0.125000
vt 0.375000 0.166667
vt 0.125000 0.500000
vt 0.375000 0.500000
vt 0.375000 0.500000
vt 0.625000 0.541667
vt 0.625000 0.583333
vt 0.625000 0.125000
vt 0.625000 0.083333
vt 0.875000 0.708333
vt 0.625000 0.750000
vt 0.625000 0.708333
vt 0.875000 0.541667
vt 0.625000 0.541667
vt 0.875000 0.583333
vt 0.625000 0.583333
vt 0.875000 0.625000
vt 0.875000 0.666667
vt 0.625000 0.583333
vt 0.625000 0.208333
vt 0.625000 0.500000
vt 0.375000 0.500000
vt 0.375000 0.500000
vt 0.375000 0.541667
vt 0.625000 0.750000
vt 0.375000 0.750000
vt 0.625000 0.500000
vt 0.625000 0.541667
vt 0.625000 0.041667
vt 0.125000 0.708333
vt 0.125000 0.541667
vt 0.375000 0.541667
vt 0.125000 0.583333
vt 0.375000 0.583333
vt 0.125000 0.625000
vt 0.375000 0.625000
vt 0.125000 0.666667
vt 0.375000 0.708333
vt 0.375000 0.208333
vt 0.375000 0.583333
vt 0.375000 0.166667
vt 0.375000 0.500000
vt 0.375000 0.541667
vt 0.375000 0.125000
vt 0.625000 0.500000
vt 0.375000 0.000000
vt 0.375000 0.083333
vt 0.625000 0.750000
vt 0.375000 1.000000
vt 0.625000 1.000000
vt 0.625000 1.000000
vt 0.375000 0.625000
vt 0.625000 0.000000
vt 0.625000 0.000000
vt 0.625000 0.000000
vt 0.875000 0.750000
vt 0.625000 0.750000
vt 0.375000 0.000000
vt 0.375000 0.250000
vt 0.375000 0.250000
vt 0.375000 0.250000
vt 0.875000 0.500000
vt 0.875000 0.500000
vt 0.625000 0.750000
vt 0.375000 0.500000
vt 0.625000 0.750000
vt 0.625000 0.750000
vt 0.375000 0.583333
vt 0.625000 0.666667
vt 0.625000 0.708333
vt 0.375000 0.708333
vt 0.375000 0.708333
vt 0.375000 0.666667
vt 0.375000 0.666667
vt 0.375000 0.625000
vt 0.375000 0.750000
vt 0.375000 0.750000
vt 0.625000 0.500000
vt 0.375000 0.500000
vt 0.625000 0.750000
vt 0.375000 0.666667
vt 0.625000 0.250000
vt 0.125000 0.500000
vt 0.375000 1.000000
vt 0.875000 0.750000
vt 0.375000 0.000000
vn -1.0000 0.0000 0.0000
vn 0.0000 -1.0000 0.0000
vn -0.8196 0.0000 0.5730
vn 0.0000 1.0000 -0.0000
vn 0.8196 0.0000 0.5730
vn 0.8196 0.0000 -0.5730
vn 0.9434 0.0000 -0.3318
vn 1.0000 0.0000 0.0000
vn 0.9434 0.0000 0.3318
vn -0.9434 0.0000 -0.3318
vn 0.0000 0.0000 1.0000
vn -0.8196 0.0000 -0.5730
vn -0.9434 0.0000 0.3318
vn 0.0000 0.0000 -1.0000
s off
f 21/1/1 42/2/1 22/3/1
f 47/4/2 62/5/2 44/6/2
f 23/7/3 6/8/3 9/9/3
f 38/10/4 94/11/4 100/12/4
f 18/13/5 4/14/5 24/15/5
f 33/16/1 68/17/1 5/18/1
f 1/19/6 28/20/6 2/21/6
f 14/22/7 27/23/7 28/20/7
f 15/24/8 26/25/8 27/23/8
f 16/26/8 25/27/8 26/25/8
f 17/28/9 24/15/9 25/27/9
f 15/24/2 85/29/2 16/26/2
f 12/30/10 43/31/10 13/32/10
f 38/10/4 99/33/4 37/34/4
f 34/35/4 108/36/4 71/37/4
f 61/38/11 79/39/11 60/40/11
f 7/41/12 13/32/12 8/42/12
f 19/43/10 12/30/10 13/32/10
f 20/44/1 11/45/1 12/30/1
f 21/1/1 10/46/1 11/45/1
f 22/3/13 9/9/13 10/46/13
f 46/47/2 69/48/2 45/49/2
f 15/24/2 83/50/2 84/51/2
f 20/44/1 41/52/1 21/1/1
f 23/7/3 33/16/3 5/18/3
f 19/43/10 40/53/10 20/44/10
f 39/54/4 29/55/4 31/56/4
f 34/35/4 32/57/4 35/58/4
f 35/58/4 42/59/4 36/60/4
f 42/59/4 37/34/4 36/60/4
f 41/61/4 38/10/4 37/34/4
f 40/62/4 31/56/4 38/10/4
f 37/34/4 98/63/4 36/60/4
f 22/3/13 32/64/13 23/7/13
f 67/65/14 107/66/14 65/67/14
f 27/23/4 82/68/4 28/20/4
f 3/69/14 78/70/14 4/14/14
f 14/22/2 75/71/2 83/50/2
f 36/60/4 97/72/4 35/58/4
f 7/41/12 39/73/12 19/43/12
f 43/74/2 47/4/2 44/6/2
f 45/49/2 49/75/2 46/47/2
f 48/76/2 50/77/2 49/75/2
f 56/78/2 51/79/2 50/77/2
f 55/80/2 52/81/2 51/79/2
f 52/81/2 53/82/2 43/74/2
f 6/8/3 49/83/3 9/9/3
f 26/25/4 90/84/4 27/23/4
f 9/9/13 50/85/13 10/46/13
f 48/76/2 74/86/2 101/87/2
f 10/46/1 51/88/1 11/45/1
f 35/58/4 96/89/4 34/35/4
f 13/32/12 44/90/12 8/42/12
f 11/45/1 52/91/1 12/30/1
f 59/92/11 57/93/11 60/40/11
f 57/93/11 61/38/11 60/40/11
f 59/92/11 64/94/11 58/95/11
f 25/27/4 89/96/4 26/25/4
f 8/42/1 58/97/1 7/41/1
f 7/41/1 64/98/1 30/99/1
f 30/100/4 63/101/4 29/55/4
f 44/90/1 57/102/1 8/42/1
f 68/17/14 65/67/14 66/103/14
f 65/67/14 72/104/14 66/103/14
f 68/17/14 71/37/14 67/65/14
f 2/21/11 75/71/11 1/19/11
f 6/8/1 72/104/1 46/105/1
f 34/35/4 70/106/4 33/107/4
f 60/40/11 81/108/11 59/92/11
f 5/18/1 66/103/1 6/8/1
f 82/68/6 74/86/6 76/109/6
f 90/84/7 101/87/7 82/68/7
f 74/86/8 107/66/8 76/109/8
f 95/110/8 81/108/8 77/111/8
f 89/96/8 92/112/8 90/84/8
f 75/71/6 97/72/6 83/50/6
f 83/50/7 98/63/7 84/51/7
f 84/51/8 99/33/8 85/29/8
f 85/29/8 100/12/8 86/113/8
f 77/111/8 79/39/8 78/70/8
f 86/113/9 94/11/9 80/114/9
f 80/114/5 95/110/5 77/111/5
f 78/70/5 102/115/5 87/116/5
f 87/116/9 103/117/9 88/118/9
f 88/118/8 93/119/8 89/96/8
f 78/70/8 104/120/8 91/121/8
f 76/109/8 106/122/8 75/71/8
f 75/71/8 108/36/8 96/89/8
f 16/26/2 86/113/2 17/28/2
f 18/13/2 77/111/2 3/69/2
f 65/67/14 73/123/14 69/48/14
f 17/28/2 80/114/2 18/13/2
f 59/92/11 105/124/11 63/101/11
f 53/82/2 91/121/2 47/4/2
f 54/125/2 102/115/2 53/82/2
f 71/37/14 106/122/14 67/65/14
f 55/80/2 103/117/2 54/125/2
f 63/101/4 95/110/4 29/55/4
f 28/20/4 76/109/4 2/21/4
f 56/78/2 93/119/2 55/80/2
f 47/4/2 104/120/2 61/38/2
f 56/78/2 101/87/2 92/112/2
f 31/56/4 95/110/4 94/11/4
f 24/15/4 78/70/4 87/116/4
f 69/48/2 74/86/2 45/49/2
f 25/27/4 87/116/4 88/118/4
f 21/1/1 41/52/1 42/2/1
f 47/4/2 61/38/2 62/5/2
f 23/7/3 5/18/3 6/8/3
f 38/10/4 31/56/4 94/11/4
f 18/13/5 3/69/5 4/14/5
f 33/16/1 70/126/1 68/17/1
f 1/19/6 14/22/6 28/20/6
f 14/22/7 15/24/7 27/23/7
f 15/24/8 16/26/8 26/25/8
f 16/26/8 17/28/8 25/27/8
f 17/28/9 18/13/9 24/15/9
f 15/24/2 84/51/2 85/29/2
f 12/30/10 52/91/10 43/31/10
f 38/10/4 100/12/4 99/33/4
f 34/35/4 96/89/4 108/36/4
f 61/38/11 104/120/11 79/39/11
f 7/41/12 19/43/12 13/32/12
f 19/43/10 20/44/10 12/30/10
f 20/44/1 21/1/1 11/45/1
f 21/1/1 22/3/1 10/46/1
f 22/3/13 23/7/13 9/9/13
f 46/47/2 72/127/2 69/48/2
f 15/24/2 14/22/2 83/50/2
f 20/44/1 40/53/1 41/52/1
f 23/7/3 32/64/3 33/16/3
f 19/43/10 39/73/10 40/53/10
f 39/54/4 30/100/4 29/55/4
f 34/35/4 33/107/4 32/57/4
f 35/58/4 32/57/4 42/59/4
f 42/59/4 41/61/4 37/34/4
f 41/61/4 40/62/4 38/10/4
f 40/62/4 39/54/4 31/56/4
f 37/34/4 99/33/4 98/63/4
f 22/3/13 42/2/13 32/64/13
f 67/65/14 106/122/14 107/66/14
f 27/23/4 90/84/4 82/68/4
f 3/69/14 77/111/14 78/70/14
f 14/22/2 1/19/2 75/71/2
f 36/60/4 98/63/4 97/72/4
f 7/41/12 30/99/12 39/73/12
f 43/74/2 53/82/2 47/4/2
f 45/49/2 48/76/2 49/75/2
f 48/76/2 56/78/2 50/77/2
f 56/78/2 55/80/2 51/79/2
f 55/80/2 54/125/2 52/81/2
f 52/81/2 54/125/2 53/82/2
f 6/8/3 46/105/3 49/83/3
f 26/25/4 89/96/4 90/84/4
f 9/9/13 49/83/13 50/85/13
f 48/76/2 45/49/2 74/86/2
f 10/46/1 50/85/1 51/88/1
f 35/58/4 97/72/4 96/89/4
f 13/32/12 43/31/12 44/90/12
f 11/45/1 51/88/1 52/91/1
f 59/92/11 58/95/11 57/93/11
f 57/93/11 62/128/11 61/38/11
f 59/92/11 63/101/11 64/94/11
f 25/27/4 88/118/4 89/96/4
f 8/42/1 57/102/1 58/97/1
f 7/41/1 58/97/1 64/98/1
f 30/100/4 64/129/4 63/101/4
f 44/90/1 62/130/1 57/102/1
f 68/17/14 67/65/14 65/67/14
f 65/67/14 69/48/14 72/104/14
f 68/17/14 70/126/14 71/37/14
f 2/21/11 76/109/11 75/71/11
f 6/8/1 66/103/1 72/104/1
f 34/35/4 71/37/4 70/106/4
f 60/40/11 79/39/11 81/108/11
f 5/18/1 68/17/1 66/103/1
f 82/68/6 101/87/6 74/86/6
f 90/84/7 92/112/7 101/87/7
f 74/86/8 73/123/8 107/66/8
f 95/110/8 105/124/8 81/108/8
f 89/96/8 93/119/8 92/112/8
f 75/71/6 96/89/6 97/72/6
f 83/50/7 97/72/7 98/63/7
f 84/51/8 98/63/8 99/33/8
f 85/29/8 99/33/8 100/12/8
f 77/111/8 81/108/8 79/39/8
f 86/113/9 100/12/9 94/11/9
f 80/114/5 94/11/5 95/110/5
f 78/70/5 91/121/5 102/115/5
f 87/116/9 102/115/9 103/117/9
f 88/118/8 103/117/8 93/119/8
f 78/70/8 79/39/8 104/120/8
f 76/109/8 107/66/8 106/122/8
f 75/71/8 106/122/8 108/36/8
f 16/26/2 85/29/2 86/113/2
f 18/13/2 80/114/2 77/111/2
f 65/67/14 107/66/14 73/123/14
f 17/28/2 86/113/2 80/114/2
f 59/92/11 81/108/11 105/124/11
f 53/82/2 102/115/2 91/121/2
f 54/125/2 103/117/2 102/115/2
f 71/37/14 108/36/14 106/122/14
f 55/80/2 93/119/2 103/117/2
f 63/101/4 105/124/4 95/110/4
f 28/20/4 82/68/4 76/109/4
f 56/78/2 92/112/2 93/119/2
f 47/4/2 91/121/2 104/120/2
f 56/78/2 48/76/2 101/87/2
f 31/56/4 29/55/4 95/110/4
f 24/15/4 4/14/4 78/70/4
f 69/48/2 73/123/2 74/86/2
f 25/27/4 24/15/4 87/116/4
